<!--Created with Inkscape (http://www.inkscape.org/)--><svg width="50" height="50" id="svg4244" version="1.1" xmlns="http://www.w3.org/2000/svg" xmlns:rdf="http://www.w3.org/1999/02/22-rdf-syntax-ns#" xmlns:cc="http://creativecommons.org/ns#" xmlns:dc="http://purl.org/dc/elements/1.1/"><metadata id="metadata4249"><rdf:RDF><cc:Work><dc:format>image/svg+xml</dc:format><dc:type rdf:resource="http://purl.org/dc/dcmitype/StillImage"/><dc:creator><cc:Agent><dc:title>Timothée Giet</dc:title></cc:Agent></dc:creator><cc:license rdf:resource="http://creativecommons.org/licenses/by-sa/4.0/"/><dc:date>2026</dc:date></cc:Work><cc:License rdf:about="http://creativecommons.org/licenses/by-sa/4.0/"><cc:permits rdf:resource="http://creativecommons.org/ns#Reproduction"/><cc:permits rdf:resource="http://creativecommons.org/ns#Distribution"/><cc:requires rdf:resource="http://creativecommons.org/ns#Notice"/><cc:requires rdf:resource="http://creativecommons.org/ns#Attribution"/><cc:permits rdf:resource="http://creativecommons.org/ns#DerivativeWorks"/><cc:requires rdf:resource="http://creativecommons.org/ns#ShareAlike"/></cc:License></rdf:RDF></metadata><path style="color:#000;display:inline;overflow:visible;visibility:visible;fill:#fff;fill-opacity:1;fill-rule:nonzero;stroke:none;stroke-width:1.8;marker:none;enable-background:accumulate" id="path3850-7-4-8-4-0" d="M25 1C11.745 1 1 11.745 1 25s10.745 24 24 24 24-10.745 24-24S38.255 1 25 1zm0 4c11.046 0 20 8.954 20 20s-8.954 20-20 20S5 36.046 5 25 13.954 5 25 5z"/><path id="path2264" style="fill:#fff;stroke-width:6;stop-color:#000;fill-opacity:1" d="M25 10a5 5 0 0 0-5 5 5 5 0 0 0 5 5 5 5 0 0 0 5-5 5 5 0 0 0-5-5zm0 3a2 2 0 0 1 2 2 2 2 0 0 1-2 2 2 2 0 0 1-2-2 2 2 0 0 1 2-2z"/><path style="fill:#fff;fill-opacity:1;stroke-width:6;stop-color:#000" d="m26 20 4 20-1-25z" id="path2806"/><path style="fill:#fff;fill-opacity:1;stroke-width:6;stop-color:#000" d="m24 20-4 20 1-25z" id="path2808"/></svg>