<!--Created with Inkscape (http://www.inkscape.org/)--><svg width="32" height="32" viewBox="0 0 31.999999 31.999999" version="1.1" id="svg5" xmlns="http://www.w3.org/2000/svg" xmlns:rdf="http://www.w3.org/1999/02/22-rdf-syntax-ns#" xmlns:cc="http://creativecommons.org/ns#" xmlns:dc="http://purl.org/dc/elements/1.1/"><g id="layer1-5" transform="matrix(.5 0 0 .5 -2 8)" style="stroke-width:.981224"><path id="rect36404" style="fill:#f2f2f2;stroke-width:.981224" d="M6 4v24h20V10h-6V4zm4 10h12v2H10zm0 4h12v2H10zm0 4h12v2H10z"/><path style="fill:#f2f2f2;stroke-width:.981224" d="M21 4v5h5z" id="path37862"/></g><g id="layer1-5-3" transform="matrix(.5 0 0 .5 18 8)" style="stroke-width:.981224"><path id="rect36404-6" style="fill:#f2f2f2;stroke-width:.981224" d="M6 4v24h20V10h-6V4zm4 10h12v2H10zm0 4h12v2H10zm0 4h12v2H10z"/><path style="fill:#f2f2f2;stroke-width:.981224" d="M21 4v5h5z" id="path37862-7"/></g><metadata id="metadata132"><rdf:RDF><cc:Work><dc:date>2026</dc:date><dc:creator><cc:Agent><dc:title>Timothée Giet</dc:title></cc:Agent></dc:creator><cc:license rdf:resource="http://creativecommons.org/licenses/by-sa/4.0/"/></cc:Work><cc:License rdf:about="http://creativecommons.org/licenses/by-sa/4.0/"><cc:permits rdf:resource="http://creativecommons.org/ns#Reproduction"/><cc:permits rdf:resource="http://creativecommons.org/ns#Distribution"/><cc:requires rdf:resource="http://creativecommons.org/ns#Notice"/><cc:requires rdf:resource="http://creativecommons.org/ns#Attribution"/><cc:permits rdf:resource="http://creativecommons.org/ns#DerivativeWorks"/><cc:requires rdf:resource="http://creativecommons.org/ns#ShareAlike"/></cc:License></rdf:RDF></metadata><path style="fill:#f2f2f2;stroke-width:.283808" d="m20 16-4 3v-2h-3v-2h3v-2z" id="path8576"/></svg>