<!--Created with Inkscape (http://www.inkscape.org/)--><svg width="100" height="100" version="1.0" id="svg62" xmlns="http://www.w3.org/2000/svg" xmlns:rdf="http://www.w3.org/1999/02/22-rdf-syntax-ns#" xmlns:cc="http://creativecommons.org/ns#" xmlns:dc="http://purl.org/dc/elements/1.1/"><metadata id="metadata4"><rdf:RDF><cc:Work><dc:format>image/svg+xml</dc:format><dc:type rdf:resource="http://purl.org/dc/dcmitype/StillImage"/><dc:date>2026</dc:date><dc:creator><cc:Agent><dc:title>Timothée Giet</dc:title></cc:Agent></dc:creator><cc:license rdf:resource="http://creativecommons.org/licenses/by-sa/4.0/"/></cc:Work><cc:License rdf:about="http://creativecommons.org/licenses/by-sa/4.0/"><cc:permits rdf:resource="http://creativecommons.org/ns#Reproduction"/><cc:permits rdf:resource="http://creativecommons.org/ns#Distribution"/><cc:requires rdf:resource="http://creativecommons.org/ns#Notice"/><cc:requires rdf:resource="http://creativecommons.org/ns#Attribution"/><cc:permits rdf:resource="http://creativecommons.org/ns#DerivativeWorks"/><cc:requires rdf:resource="http://creativecommons.org/ns#ShareAlike"/></cc:License></rdf:RDF></metadata><rect style="fill:#fff;fill-opacity:1;stroke:none;stroke-width:0;stroke-linejoin:round;stroke-opacity:1;stop-color:#000" id="rect257" width="70" height="70" x="15" y="25"/><path style="fill:none;fill-opacity:1;stroke:#286a95;stroke-width:1;stroke-linecap:round;stroke-dasharray:none;stroke-opacity:1;stop-color:#000" id="path26075" d="M33.277 89.906a30 30 0 0 1-12.56-31.428A30 30 0 0 1 45.43 35.35a30 30 0 0 1 30.53 14.61"/><path style="fill:none;fill-opacity:.75;fill-rule:evenodd;stroke:#000;stroke-linecap:butt;stroke-linejoin:miter;stroke-opacity:1" d="m8 13077 17 68221L8 13077l82 535605M18 13077l7 68221-7-68221 72 535605M28 13077l-3 68221 3-68221 62 535605M38 13077 25 81298l13-68221 52 535605M48 13077 25 81298l23-68221 42 535605M58 13077 25 81298l33-68221 32 535605M68 13077 25 81298l43-68221 22 535605M78 13077 25 81298l53-68221 12 535605M88 13077 25 81298l63-68221 2 535605m8-535605L25 81298l73-68221-8 535605M3 13077l27 68221 72 416194L30 81298M3 13077l37 68221 62 416194L40 81298M3 13077l47 68221 52 416194L50 81298M3 13077l57 68221 42 416194L60 81298M3 13077l67 68221 32 416194L70 81298M3 13077l77 68221 22 416194L80 81298M3 13077l87 68221 12 416194L90 81298" id="path6"/><path style="fill:none;fill-opacity:.75;fill-rule:evenodd;stroke:#000;stroke-linecap:butt;stroke-linejoin:miter;stroke-opacity:1" d="m8 13077 17 68221L8 13077l82 535605M13 213077 25 81298 13 213077l77 335605M18 413077l7-331779-7 331779 72 135605m-67 64395 2-531779-2 531779 67-64395M28 813077 25 81298l3 731779 62-264395M34 13076l-9 68222 9-68222 56 535606M39 213076 25 81298l14 131778 51 335606M44 413076 25 81298l19 331778 46 135606m-41 64394L25 81298l24 531778 41-64394M54 813076 25 81298l29 731778 36-264394M60 13075 25 81298l35-68223 30 535607M65 213075 25 81298l40 131777 25 335607M70 413075 25 81298l45 331777 20 135607m-15 64393L25 81298l50 531777 15-64393M80 813075 25 81298l55 731777 10-264393M86 13074 25 81298l61-68224 4 535608m1-335608L25 81298l66 131776-1 335608m6-135608L25 81298l71 331776-6 135608m11 64392L25 81298l76 531776-11-64392M3 13077l27 68221 72 416194L30 81298M3 13077l37 68221 62 416194L40 81298M3 13077l47 68221 52 416194L50 81298M3 13077l57 68221 42 416194L60 81298M3 13077l67 68221 32 416194L70 81298M3 13077l77 68221 22 416194L80 81298M3 13077l87 68221 12 416194L90 81298" id="path8"/><path id="path8691" style="fill:#536069;fill-opacity:1;stroke:none;stroke-width:.499999;stop-color:#000" d="M75.98 80 50 65l24.293 17.923z"/><path id="path8691-3" style="fill:#536069;fill-opacity:1;stroke:none;stroke-width:.499999;stop-color:#000" d="M75.988 80.075v-30l3.375 30z"/><circle style="fill:#536069;fill-opacity:1;stroke-width:6;stop-color:#000" id="path15611" cx="-75.987617" cy="-80.074539" r="5" transform="scale(-1)"/><circle style="fill:#424e56;fill-opacity:1;stroke:#bfcad9;stroke-width:.5;stroke-dasharray:none;stroke-opacity:1;stop-color:#000" id="path15611-6" cx="-75.987617" cy="-80.074539" r="3" transform="scale(-1)"/><g id="layer1" transform="rotate(135 32.538 49.417) scale(.22785)" style="stroke-width:4.38889"><path style="fill:#d9bd90;fill-opacity:1;stroke:none;stroke-width:2.19444;stop-color:#000" d="m10 80 9-30H1z" id="path238"/><path style="fill:#286795;fill-opacity:1;stroke:none;stroke-width:2.19444;stop-color:#000" d="m10 80 3-10c-1.98-1.31-3.979-1.357-6 0z" id="path3158"/><path style="fill:#57a0d2;fill-opacity:1;stroke:none;stroke-width:2.19444;stop-color:#000" d="M1 50h18V1H1z" id="path4294"/><rect style="fill:#286895;fill-opacity:1;stroke:none;stroke-width:2.19444;stop-color:#000" id="rect5074" width="8" height="49" x="6" y="1" ry="0"/></g></svg>