<!--Created with Inkscape (http://www.inkscape.org/)--><svg viewBox="0 0 100 100" width="100" height="100" version="1.1" id="svg267" xmlns="http://www.w3.org/2000/svg" xmlns:rdf="http://www.w3.org/1999/02/22-rdf-syntax-ns#" xmlns:cc="http://creativecommons.org/ns#" xmlns:dc="http://purl.org/dc/elements/1.1/"><metadata id="metadata265"><rdf:RDF><cc:Work><dc:format>image/svg+xml</dc:format><dc:type rdf:resource="http://purl.org/dc/dcmitype/StillImage"/><dc:date>2026</dc:date><dc:creator><cc:Agent><dc:title>Timothée Giet</dc:title></cc:Agent></dc:creator><cc:license rdf:resource="http://creativecommons.org/licenses/by-sa/4.0/"/></cc:Work><cc:License rdf:about="http://creativecommons.org/licenses/by-sa/4.0/"><cc:permits rdf:resource="http://creativecommons.org/ns#Reproduction"/><cc:permits rdf:resource="http://creativecommons.org/ns#Distribution"/><cc:requires rdf:resource="http://creativecommons.org/ns#Notice"/><cc:requires rdf:resource="http://creativecommons.org/ns#Attribution"/><cc:permits rdf:resource="http://creativecommons.org/ns#DerivativeWorks"/><cc:requires rdf:resource="http://creativecommons.org/ns#ShareAlike"/></cc:License></rdf:RDF></metadata><g id="g2045" transform="translate(2.59 4.126)"><rect style="fill:#fff;fill-opacity:.597157;stroke-width:1.118;stop-color:#000" id="rect791" width="35" height="35" x="13.910055" y="13.873857" ry="4.625"/><path style="font-style:normal;font-variant:normal;font-weight:400;font-stretch:normal;font-size:25.4px;line-height:1.25;font-family:Kabel;-inkscape-font-specification:Kabel;letter-spacing:0;word-spacing:0;fill:#d2611d;fill-opacity:1;stroke:#fff;stroke-width:.500001;stroke-miterlimit:4;stroke-dasharray:none;stroke-opacity:1" d="m20.673 41.82 10.725-21.808L42.145 41.82l-5.03 1.133-2.143-4.636h-7.369l-1.894 4.691zm12.571-7.792-1.996-4.563-1.941 4.561z" id="path28"/></g><path d="M7.707 61.32C5.34 67 9.407 90.96 12.692 94.347c2.88 2.968 82.098-15.404 83.884-21.059 1.785-5.655-2.452-28.597-5.507-31.613-2.996-2.957-80.996 13.964-83.362 19.645z" style="display:inline;fill:#4c5e7b;fill-opacity:1;fill-rule:evenodd;stroke:none;stroke-width:1px;stroke-linecap:butt;stroke-linejoin:miter;stroke-opacity:1" id="path2295"/><path d="M9.564 62.715c-2.366 5.68 1.701 25.773 4.986 29.158 2.88 2.968 78.787-14.73 80.573-20.385 1.786-5.656-2.451-24.73-5.506-27.745C86.62 40.786 11.93 57.034 9.564 62.715z" style="display:inline;fill:#eaeef3;fill-opacity:1;fill-rule:evenodd;stroke:none;stroke-width:1px;stroke-linecap:butt;stroke-linejoin:miter;stroke-opacity:1" id="path2297"/><path d="M14.796 64.776c-.277 1.285-.074 2.38.497 3.434.572 1.054 5.03-.292 5.336-.825.307-.534-.045-3.626-.598-4.21-.553-.584-4.957.316-5.235 1.601z" style="display:inline;fill:#4c5e7b;fill-opacity:1;fill-rule:evenodd;stroke:none;stroke-width:1px;stroke-linecap:butt;stroke-linejoin:miter;stroke-opacity:1" id="path2299"/><path d="M15.188 64.877c-.238 1.115-.065 2.064.424 2.979.488.914 4.297-.254 4.56-.717.261-.463-.039-3.145-.511-3.652-.472-.507-4.236.275-4.473 1.39z" style="display:inline;fill:#e77936;fill-opacity:1;fill-rule:evenodd;stroke:none;stroke-width:1px;stroke-linecap:butt;stroke-linejoin:miter;stroke-opacity:1" id="path2301"/><path d="M20.363 63.353c-.277 1.285-.075 2.38.497 3.433.572 1.055 5.03-.291 5.336-.825.307-.533-.045-3.626-.598-4.21-.553-.584-4.957.317-5.235 1.602z" style="display:inline;fill:#4c5e7b;fill-opacity:1;fill-rule:evenodd;stroke:none;stroke-width:1px;stroke-linecap:butt;stroke-linejoin:miter;stroke-opacity:1" id="path2303"/><path d="M20.755 63.454c-.238 1.115-.065 2.064.424 2.979.488.914 4.297-.254 4.559-.717.262-.463-.038-3.146-.51-3.652-.473-.507-4.236.275-4.473 1.39z" style="display:inline;fill:#e79b36;fill-opacity:1;fill-rule:evenodd;stroke:none;stroke-width:1px;stroke-linecap:butt;stroke-linejoin:miter;stroke-opacity:1" id="path2305"/><path d="M25.931 61.865c-.277 1.285-.075 2.38.497 3.434.572 1.054 5.03-.292 5.336-.826.306-.533-.045-3.625-.598-4.21-.553-.584-4.958.317-5.235 1.602z" style="display:inline;fill:#4c5e7b;fill-opacity:1;fill-rule:evenodd;stroke:none;stroke-width:1px;stroke-linecap:butt;stroke-linejoin:miter;stroke-opacity:1" id="path2307"/><path d="M26.322 61.966c-.237 1.115-.064 2.064.425 2.979.488.914 4.297-.254 4.559-.717.262-.463-.038-3.146-.51-3.652-.473-.507-4.236.275-4.474 1.39z" style="display:inline;fill:#e7bb36;fill-opacity:1;fill-rule:evenodd;stroke:none;stroke-width:1px;stroke-linecap:butt;stroke-linejoin:miter;stroke-opacity:1" id="path2309"/><path d="M31.498 60.442c-.278 1.285-.075 2.379.497 3.433.572 1.055 5.029-.291 5.336-.825.306-.533-.046-3.626-.598-4.21-.553-.584-4.958.317-5.235 1.602z" style="display:inline;fill:#4c5e7b;fill-opacity:1;fill-rule:evenodd;stroke:none;stroke-width:1px;stroke-linecap:butt;stroke-linejoin:miter;stroke-opacity:1" id="path2311"/><path d="M31.89 60.543c-.238 1.115-.065 2.064.423 2.978.489.915 4.298-.254 4.56-.717.262-.462-.038-3.145-.51-3.652-.473-.506-4.236.276-4.474 1.39z" style="display:inline;fill:#d1e736;fill-opacity:1;fill-rule:evenodd;stroke:none;stroke-width:1px;stroke-linecap:butt;stroke-linejoin:miter;stroke-opacity:1" id="path2313"/><path d="M37.066 58.954c-.278 1.285-.075 2.379.497 3.433.572 1.055 5.029-.291 5.336-.825.306-.533-.046-3.626-.599-4.21-.553-.584-4.957.317-5.234 1.602z" style="display:inline;fill:#4c5e7b;fill-opacity:1;fill-rule:evenodd;stroke:none;stroke-width:1px;stroke-linecap:butt;stroke-linejoin:miter;stroke-opacity:1" id="path2315"/><path d="M37.457 59.055c-.237 1.115-.064 2.064.424 2.978.489.915 4.297-.253 4.56-.716.262-.463-.038-3.146-.51-3.653-.473-.506-4.237.276-4.474 1.391z" style="display:inline;fill:#75d21b;fill-opacity:1;fill-rule:evenodd;stroke:none;stroke-width:1px;stroke-linecap:butt;stroke-linejoin:miter;stroke-opacity:1" id="path2317"/><path d="M42.633 57.53c-.278 1.286-.075 2.38.497 3.434.572 1.054 5.029-.292 5.335-.825.307-.534-.045-3.626-.598-4.21-.553-.584-4.957.316-5.234 1.602z" style="display:inline;fill:#4c5e7b;fill-opacity:1;fill-rule:evenodd;stroke:none;stroke-width:1px;stroke-linecap:butt;stroke-linejoin:miter;stroke-opacity:1" id="path2319"/><path d="M43.024 57.632c-.237 1.115-.064 2.064.424 2.978.488.915 4.297-.254 4.56-.717.262-.463-.039-3.145-.51-3.652-.473-.506-4.237.276-4.474 1.39z" style="display:inline;fill:#1bd280;fill-opacity:1;fill-rule:evenodd;stroke:none;stroke-width:1px;stroke-linecap:butt;stroke-linejoin:miter;stroke-opacity:1" id="path2321"/><path d="M48.2 56.043c-.277 1.285-.074 2.379.498 3.433.571 1.054 5.029-.291 5.335-.825.307-.534-.045-3.626-.598-4.21-.553-.584-4.957.317-5.235 1.602z" style="display:inline;fill:#4c5e7b;fill-opacity:1;fill-rule:evenodd;stroke:none;stroke-width:1px;stroke-linecap:butt;stroke-linejoin:miter;stroke-opacity:1" id="path2323"/><path d="M48.592 56.144c-.238 1.115-.065 2.064.424 2.978.488.915 4.297-.254 4.56-.717.261-.463-.039-3.145-.511-3.652-.472-.506-4.236.276-4.473 1.39z" style="display:inline;fill:#1bd0d2;fill-opacity:1;fill-rule:evenodd;stroke:none;stroke-width:1px;stroke-linecap:butt;stroke-linejoin:miter;stroke-opacity:1" id="path2325"/><path d="M53.767 54.62c-.277 1.284-.074 2.379.497 3.433.572 1.054 5.03-.292 5.336-.825.307-.534-.045-3.626-.598-4.21-.553-.584-4.957.316-5.235 1.601z" style="display:inline;fill:#4c5e7b;fill-opacity:1;fill-rule:evenodd;stroke:none;stroke-width:1px;stroke-linecap:butt;stroke-linejoin:miter;stroke-opacity:1" id="path2327"/><path d="M54.159 54.72c-.238 1.115-.065 2.064.424 2.979.488.914 4.297-.254 4.56-.717.261-.463-.039-3.145-.511-3.652-.472-.507-4.236.276-4.473 1.39z" style="display:inline;fill:#1bbbd2;fill-opacity:1;fill-rule:evenodd;stroke:none;stroke-width:1px;stroke-linecap:butt;stroke-linejoin:miter;stroke-opacity:1" id="path2329"/><path d="M59.335 53.131c-.277 1.286-.075 2.38.497 3.434.572 1.054 5.03-.292 5.336-.825.307-.534-.045-3.626-.598-4.21-.553-.584-4.958.316-5.235 1.601z" style="display:inline;fill:#4c5e7b;fill-opacity:1;fill-rule:evenodd;stroke:none;stroke-width:1px;stroke-linecap:butt;stroke-linejoin:miter;stroke-opacity:1" id="path2331"/><path d="M59.726 53.233c-.237 1.114-.064 2.064.425 2.978.488.915 4.297-.254 4.559-.717.262-.463-.038-3.145-.51-3.652-.473-.507-4.236.276-4.474 1.39z" style="display:inline;fill:#1b8bd2;fill-opacity:1;fill-rule:evenodd;stroke:none;stroke-width:1px;stroke-linecap:butt;stroke-linejoin:miter;stroke-opacity:1" id="path2333"/><path d="M64.902 51.708c-.277 1.285-.075 2.38.497 3.434.572 1.054 5.03-.292 5.336-.826.306-.533-.045-3.625-.598-4.21-.553-.584-4.958.317-5.235 1.602z" style="display:inline;fill:#4c5e7b;fill-opacity:1;fill-rule:evenodd;stroke:none;stroke-width:1px;stroke-linecap:butt;stroke-linejoin:miter;stroke-opacity:1" id="path2335"/><path d="M65.293 51.81c-.237 1.114-.064 2.063.424 2.978.489.914 4.298-.254 4.56-.717.262-.463-.038-3.146-.51-3.652-.473-.507-4.236.275-4.474 1.39z" style="display:inline;fill:#7a68ec;fill-opacity:1;fill-rule:evenodd;stroke:none;stroke-width:1px;stroke-linecap:butt;stroke-linejoin:miter;stroke-opacity:1" id="path2337"/><path d="M77.223 49.244c-.277 1.285-.075 2.379.497 3.433.572 1.055 5.03-.291 5.336-.825.307-.533-.045-3.626-.598-4.21-.553-.584-4.957.317-5.235 1.602z" style="display:inline;fill:#4c5e7b;fill-opacity:1;fill-rule:evenodd;stroke:none;stroke-width:1px;stroke-linecap:butt;stroke-linejoin:miter;stroke-opacity:1" id="path2339"/><path d="M77.615 49.345c-.238 1.115-.065 2.064.424 2.978.488.915 4.297-.253 4.559-.716.262-.463-.038-3.146-.51-3.653-.473-.506-4.236.276-4.473 1.391z" style="display:inline;fill:#e16f6f;fill-opacity:1;fill-rule:evenodd;stroke:none;stroke-width:1px;stroke-linecap:butt;stroke-linejoin:miter;stroke-opacity:1" id="path2341"/><path d="M14.796 73.401c-.277 1.285-.074 2.38.497 3.434.572 1.054 5.03-.292 5.336-.826.307-.533-.045-3.625-.598-4.21-.553-.584-4.957.317-5.235 1.602z" style="display:inline;fill:#4c5e7b;fill-opacity:1;fill-rule:evenodd;stroke:none;stroke-width:1px;stroke-linecap:butt;stroke-linejoin:miter;stroke-opacity:1" id="path2343"/><path d="M15.188 73.502c-.238 1.115-.065 2.064.424 2.979.488.914 4.297-.254 4.56-.717.261-.463-.039-3.146-.511-3.652-.472-.507-4.236.275-4.473 1.39z" style="display:inline;fill:#e77936;fill-opacity:1;fill-rule:evenodd;stroke:none;stroke-width:1px;stroke-linecap:butt;stroke-linejoin:miter;stroke-opacity:1" id="path2345"/><path d="M20.363 71.978c-.277 1.285-.075 2.379.497 3.433.572 1.055 5.03-.291 5.336-.825.307-.533-.045-3.626-.598-4.21-.553-.584-4.957.317-5.235 1.602z" style="display:inline;fill:#4c5e7b;fill-opacity:1;fill-rule:evenodd;stroke:none;stroke-width:1px;stroke-linecap:butt;stroke-linejoin:miter;stroke-opacity:1" id="path2347"/><path d="M20.755 72.079c-.238 1.115-.065 2.064.424 2.978.488.915 4.297-.253 4.559-.716.262-.463-.038-3.146-.51-3.653-.473-.506-4.236.276-4.473 1.39z" style="display:inline;fill:#e79b36;fill-opacity:1;fill-rule:evenodd;stroke:none;stroke-width:1px;stroke-linecap:butt;stroke-linejoin:miter;stroke-opacity:1" id="path2349"/><path d="M25.931 70.49c-.277 1.285-.075 2.38.497 3.433.572 1.055 5.03-.291 5.336-.825.306-.533-.045-3.626-.598-4.21-.553-.584-4.958.317-5.235 1.602z" style="display:inline;fill:#4c5e7b;fill-opacity:1;fill-rule:evenodd;stroke:none;stroke-width:1px;stroke-linecap:butt;stroke-linejoin:miter;stroke-opacity:1" id="path2351"/><path d="M26.322 70.591c-.237 1.115-.064 2.064.425 2.979.488.914 4.297-.254 4.559-.717.262-.463-.038-3.146-.51-3.652-.473-.507-4.236.275-4.474 1.39z" style="display:inline;fill:#e7bb36;fill-opacity:1;fill-rule:evenodd;stroke:none;stroke-width:1px;stroke-linecap:butt;stroke-linejoin:miter;stroke-opacity:1" id="path2353"/><path d="M31.498 69.067c-.278 1.285-.075 2.379.497 3.433.572 1.054 5.029-.291 5.336-.825.306-.534-.046-3.626-.598-4.21-.553-.584-4.958.317-5.235 1.602z" style="display:inline;fill:#4c5e7b;fill-opacity:1;fill-rule:evenodd;stroke:none;stroke-width:1px;stroke-linecap:butt;stroke-linejoin:miter;stroke-opacity:1" id="path2355"/><path d="M31.89 69.168c-.238 1.115-.065 2.064.423 2.978.489.915 4.298-.254 4.56-.717.262-.463-.038-3.145-.51-3.652-.473-.506-4.236.276-4.474 1.39z" style="display:inline;fill:#d1e736;fill-opacity:1;fill-rule:evenodd;stroke:none;stroke-width:1px;stroke-linecap:butt;stroke-linejoin:miter;stroke-opacity:1" id="path2357"/><path d="M37.066 67.579c-.278 1.285-.075 2.379.497 3.433.572 1.054 5.029-.291 5.336-.825.306-.534-.046-3.626-.599-4.21-.553-.584-4.957.317-5.234 1.602z" style="display:inline;fill:#4c5e7b;fill-opacity:1;fill-rule:evenodd;stroke:none;stroke-width:1px;stroke-linecap:butt;stroke-linejoin:miter;stroke-opacity:1" id="path2359"/><path d="M37.457 67.68c-.237 1.115-.064 2.064.424 2.978.489.915 4.297-.254 4.56-.717.262-.462-.038-3.145-.51-3.652-.473-.506-4.237.276-4.474 1.39z" style="display:inline;fill:#75d21b;fill-opacity:1;fill-rule:evenodd;stroke:none;stroke-width:1px;stroke-linecap:butt;stroke-linejoin:miter;stroke-opacity:1" id="path2361"/><path d="M42.633 66.155c-.278 1.286-.075 2.38.497 3.434.572 1.054 5.029-.292 5.335-.825.307-.534-.045-3.626-.598-4.21-.553-.584-4.957.316-5.234 1.601z" style="display:inline;fill:#4c5e7b;fill-opacity:1;fill-rule:evenodd;stroke:none;stroke-width:1px;stroke-linecap:butt;stroke-linejoin:miter;stroke-opacity:1" id="path2363"/><path d="M43.024 66.257c-.237 1.114-.064 2.063.424 2.978s4.297-.254 4.56-.717c.262-.463-.039-3.145-.51-3.652-.473-.507-4.237.276-4.474 1.39z" style="display:inline;fill:#1bd280;fill-opacity:1;fill-rule:evenodd;stroke:none;stroke-width:1px;stroke-linecap:butt;stroke-linejoin:miter;stroke-opacity:1" id="path2365"/><path d="M48.2 64.668c-.277 1.285-.074 2.379.498 3.433.571 1.054 5.029-.292 5.335-.825.307-.534-.045-3.626-.598-4.21-.553-.584-4.957.316-5.235 1.602z" style="display:inline;fill:#4c5e7b;fill-opacity:1;fill-rule:evenodd;stroke:none;stroke-width:1px;stroke-linecap:butt;stroke-linejoin:miter;stroke-opacity:1" id="path2367"/><path d="M48.592 64.769c-.238 1.115-.065 2.064.424 2.978.488.915 4.297-.254 4.56-.717.261-.463-.039-3.145-.511-3.652-.472-.507-4.236.276-4.473 1.39z" style="display:inline;fill:#1bd0d2;fill-opacity:1;fill-rule:evenodd;stroke:none;stroke-width:1px;stroke-linecap:butt;stroke-linejoin:miter;stroke-opacity:1" id="path2369"/><path d="M53.767 63.244c-.277 1.285-.074 2.38.497 3.434.572 1.054 5.03-.292 5.336-.825.307-.534-.045-3.626-.598-4.21-.553-.585-4.957.316-5.235 1.601z" style="display:inline;fill:#4c5e7b;fill-opacity:1;fill-rule:evenodd;stroke:none;stroke-width:1px;stroke-linecap:butt;stroke-linejoin:miter;stroke-opacity:1" id="path2371"/><path d="M54.159 63.345c-.238 1.115-.065 2.064.424 2.979.488.914 4.297-.254 4.56-.717.261-.463-.039-3.146-.511-3.652-.472-.507-4.236.275-4.473 1.39z" style="display:inline;fill:#1bbbd2;fill-opacity:1;fill-rule:evenodd;stroke:none;stroke-width:1px;stroke-linecap:butt;stroke-linejoin:miter;stroke-opacity:1" id="path2373"/><path d="M59.335 61.756c-.277 1.285-.075 2.38.497 3.434.572 1.054 5.03-.292 5.336-.825.307-.534-.045-3.626-.598-4.21-.553-.584-4.958.316-5.235 1.601z" style="display:inline;fill:#4c5e7b;fill-opacity:1;fill-rule:evenodd;stroke:none;stroke-width:1px;stroke-linecap:butt;stroke-linejoin:miter;stroke-opacity:1" id="path2375"/><path d="M59.726 61.857c-.237 1.115-.064 2.064.425 2.979.488.914 4.297-.254 4.559-.717.262-.463-.038-3.145-.51-3.652-.473-.507-4.236.276-4.474 1.39z" style="display:inline;fill:#1b8bd2;fill-opacity:1;fill-rule:evenodd;stroke:none;stroke-width:1px;stroke-linecap:butt;stroke-linejoin:miter;stroke-opacity:1" id="path2377"/><path d="M64.902 60.333c-.277 1.285-.075 2.38.497 3.433.572 1.055 5.03-.291 5.336-.825.306-.533-.045-3.626-.598-4.21-.553-.584-4.958.317-5.235 1.602z" style="display:inline;fill:#4c5e7b;fill-opacity:1;fill-rule:evenodd;stroke:none;stroke-width:1px;stroke-linecap:butt;stroke-linejoin:miter;stroke-opacity:1" id="path2379"/><path d="M65.293 60.434c-.237 1.115-.064 2.064.424 2.979.489.914 4.298-.254 4.56-.717.262-.463-.038-3.146-.51-3.652-.473-.507-4.236.275-4.474 1.39z" style="display:inline;fill:#7a68ec;fill-opacity:1;fill-rule:evenodd;stroke:none;stroke-width:1px;stroke-linecap:butt;stroke-linejoin:miter;stroke-opacity:1" id="path2381"/><path d="M70.4 58.932c-.277 1.285-.074 2.379.498 3.433.572 1.055 5.03-.291 5.336-.825.306-.533-.046-3.626-.598-4.21-.553-.584-4.958.317-5.235 1.602z" style="display:inline;fill:#4c5e7b;fill-opacity:1;fill-rule:evenodd;stroke:none;stroke-width:1px;stroke-linecap:butt;stroke-linejoin:miter;stroke-opacity:1" id="path2383"/><path d="M70.792 59.033c-.237 1.115-.064 2.064.424 2.978.489.915 4.298-.254 4.56-.716.262-.463-.038-3.146-.51-3.653-.473-.506-4.236.276-4.474 1.39z" style="display:inline;fill:#cc77d6;fill-opacity:1;fill-rule:evenodd;stroke:none;stroke-width:1px;stroke-linecap:butt;stroke-linejoin:miter;stroke-opacity:1" id="path2385"/><path d="M75.969 57.444c-.278 1.285-.075 2.379.497 3.433.572 1.055 5.029-.291 5.336-.825.306-.533-.046-3.626-.599-4.21-.553-.584-4.957.317-5.234 1.602z" style="display:inline;fill:#4c5e7b;fill-opacity:1;fill-rule:evenodd;stroke:none;stroke-width:1px;stroke-linecap:butt;stroke-linejoin:miter;stroke-opacity:1" id="path2387"/><path d="M76.36 57.545c-.237 1.115-.064 2.064.424 2.978.489.915 4.297-.253 4.56-.716.262-.463-.038-3.146-.51-3.653-.473-.506-4.237.276-4.474 1.391z" style="display:inline;fill:#d677aa;fill-opacity:1;fill-rule:evenodd;stroke:none;stroke-width:1px;stroke-linecap:butt;stroke-linejoin:miter;stroke-opacity:1" id="path2389"/><path d="M81.536 56.02c-.278 1.286-.075 2.38.497 3.434.572 1.054 5.029-.292 5.335-.825.307-.534-.045-3.626-.598-4.21-.553-.584-4.957.317-5.234 1.602z" style="display:inline;fill:#4c5e7b;fill-opacity:1;fill-rule:evenodd;stroke:none;stroke-width:1px;stroke-linecap:butt;stroke-linejoin:miter;stroke-opacity:1" id="path2391"/><path d="M81.927 56.122c-.237 1.115-.064 2.064.424 2.978.489.915 4.297-.254 4.56-.717.262-.463-.038-3.145-.51-3.652-.473-.506-4.237.276-4.474 1.39z" style="display:inline;fill:#e16f6f;fill-opacity:1;fill-rule:evenodd;stroke:none;stroke-width:1px;stroke-linecap:butt;stroke-linejoin:miter;stroke-opacity:1" id="path2393"/><path d="M18.493 77.714c-.278 1.285-.075 2.379.497 3.433.572 1.054 5.029-.291 5.335-.825.307-.534-.045-3.626-.598-4.21-.553-.584-4.957.317-5.234 1.602z" style="display:inline;fill:#4c5e7b;fill-opacity:1;fill-rule:evenodd;stroke:none;stroke-width:1px;stroke-linecap:butt;stroke-linejoin:miter;stroke-opacity:1" id="path2395"/><path d="M18.884 77.815c-.237 1.115-.064 2.064.424 2.978.489.915 4.297-.254 4.56-.717.262-.463-.038-3.145-.51-3.652-.473-.506-4.237.276-4.474 1.39z" style="display:inline;fill:#e77936;fill-opacity:1;fill-rule:evenodd;stroke:none;stroke-width:1px;stroke-linecap:butt;stroke-linejoin:miter;stroke-opacity:1" id="path2397"/><path d="M24.06 76.29c-.278 1.285-.075 2.38.497 3.434.572 1.054 5.029-.292 5.335-.825.307-.534-.045-3.626-.598-4.21-.553-.584-4.957.316-5.234 1.601z" style="display:inline;fill:#4c5e7b;fill-opacity:1;fill-rule:evenodd;stroke:none;stroke-width:1px;stroke-linecap:butt;stroke-linejoin:miter;stroke-opacity:1" id="path2399"/><path d="M24.45 76.391c-.236 1.115-.063 2.064.425 2.979.488.914 4.297-.254 4.56-.717.262-.463-.039-3.146-.51-3.652-.473-.507-4.237.275-4.474 1.39z" style="display:inline;fill:#e79b36;fill-opacity:1;fill-rule:evenodd;stroke:none;stroke-width:1px;stroke-linecap:butt;stroke-linejoin:miter;stroke-opacity:1" id="path2401"/><path d="M29.627 74.802c-.277 1.285-.074 2.38.498 3.434.571 1.054 5.029-.292 5.335-.825.307-.534-.045-3.626-.598-4.21-.553-.584-4.957.316-5.235 1.601z" style="display:inline;fill:#4c5e7b;fill-opacity:1;fill-rule:evenodd;stroke:none;stroke-width:1px;stroke-linecap:butt;stroke-linejoin:miter;stroke-opacity:1" id="path2403"/><path d="M30.019 74.903c-.238 1.115-.065 2.064.424 2.979.488.914 4.297-.254 4.56-.717.261-.463-.039-3.145-.511-3.652-.472-.507-4.236.276-4.473 1.39z" style="display:inline;fill:#e7bb36;fill-opacity:1;fill-rule:evenodd;stroke:none;stroke-width:1px;stroke-linecap:butt;stroke-linejoin:miter;stroke-opacity:1" id="path2405"/><path d="M35.194 73.38c-.277 1.284-.074 2.378.497 3.433.572 1.054 5.03-.292 5.336-.826.307-.533-.045-3.625-.598-4.21-.553-.584-4.957.317-5.235 1.602z" style="display:inline;fill:#4c5e7b;fill-opacity:1;fill-rule:evenodd;stroke:none;stroke-width:1px;stroke-linecap:butt;stroke-linejoin:miter;stroke-opacity:1" id="path2407"/><path d="M35.586 73.48c-.238 1.115-.065 2.064.424 2.979.488.914 4.297-.254 4.56-.717.261-.463-.039-3.146-.511-3.652-.473-.507-4.236.275-4.473 1.39z" style="display:inline;fill:#d1e736;fill-opacity:1;fill-rule:evenodd;stroke:none;stroke-width:1px;stroke-linecap:butt;stroke-linejoin:miter;stroke-opacity:1" id="path2409"/><path d="M40.762 71.891c-.277 1.285-.075 2.38.497 3.434.572 1.054 5.03-.292 5.336-.826.307-.533-.045-3.625-.598-4.21-.553-.584-4.958.317-5.235 1.602z" style="display:inline;fill:#4c5e7b;fill-opacity:1;fill-rule:evenodd;stroke:none;stroke-width:1px;stroke-linecap:butt;stroke-linejoin:miter;stroke-opacity:1" id="path2411"/><path d="M41.153 71.992c-.237 1.115-.064 2.064.425 2.979.488.914 4.297-.254 4.559-.717.262-.463-.038-3.146-.51-3.652-.473-.507-4.236.275-4.474 1.39z" style="display:inline;fill:#75d21b;fill-opacity:1;fill-rule:evenodd;stroke:none;stroke-width:1px;stroke-linecap:butt;stroke-linejoin:miter;stroke-opacity:1" id="path2413"/><path d="M46.329 70.468c-.278 1.285-.075 2.379.497 3.433.572 1.055 5.03-.291 5.336-.825.306-.533-.045-3.626-.598-4.21-.553-.584-4.958.317-5.235 1.602z" style="display:inline;fill:#4c5e7b;fill-opacity:1;fill-rule:evenodd;stroke:none;stroke-width:1px;stroke-linecap:butt;stroke-linejoin:miter;stroke-opacity:1" id="path2415"/><path d="M46.72 70.569c-.237 1.115-.064 2.064.424 2.978.489.915 4.298-.253 4.56-.716.262-.463-.038-3.146-.51-3.653-.473-.506-4.236.276-4.474 1.39z" style="display:inline;fill:#1bd280;fill-opacity:1;fill-rule:evenodd;stroke:none;stroke-width:1px;stroke-linecap:butt;stroke-linejoin:miter;stroke-opacity:1" id="path2417"/><path d="M51.897 68.98c-.278 1.285-.075 2.38.497 3.433.572 1.055 5.029-.291 5.336-.825.306-.533-.046-3.626-.599-4.21-.552-.584-4.957.317-5.234 1.602z" style="display:inline;fill:#4c5e7b;fill-opacity:1;fill-rule:evenodd;stroke:none;stroke-width:1px;stroke-linecap:butt;stroke-linejoin:miter;stroke-opacity:1" id="path2419"/><path d="M52.288 69.081c-.237 1.115-.064 2.064.424 2.979.489.914 4.297-.254 4.56-.717.262-.463-.038-3.146-.51-3.652-.473-.507-4.237.275-4.474 1.39z" style="display:inline;fill:#1bd0d2;fill-opacity:1;fill-rule:evenodd;stroke:none;stroke-width:1px;stroke-linecap:butt;stroke-linejoin:miter;stroke-opacity:1" id="path2421"/><path d="M57.464 67.557c-.278 1.285-.075 2.379.497 3.433.572 1.054 5.029-.291 5.335-.825.307-.534-.045-3.626-.598-4.21-.553-.584-4.957.317-5.234 1.602z" style="display:inline;fill:#4c5e7b;fill-opacity:1;fill-rule:evenodd;stroke:none;stroke-width:1px;stroke-linecap:butt;stroke-linejoin:miter;stroke-opacity:1" id="path2423"/><path d="M57.855 67.658c-.237 1.115-.064 2.064.424 2.978.489.915 4.297-.254 4.56-.717.262-.463-.038-3.145-.51-3.652-.473-.506-4.237.276-4.474 1.39z" style="display:inline;fill:#1bbbd2;fill-opacity:1;fill-rule:evenodd;stroke:none;stroke-width:1px;stroke-linecap:butt;stroke-linejoin:miter;stroke-opacity:1" id="path2425"/><path d="M63.031 66.069c-.277 1.285-.074 2.379.498 3.433.571 1.054 5.029-.291 5.335-.825.307-.534-.045-3.626-.598-4.21-.553-.584-4.957.317-5.235 1.602z" style="display:inline;fill:#4c5e7b;fill-opacity:1;fill-rule:evenodd;stroke:none;stroke-width:1px;stroke-linecap:butt;stroke-linejoin:miter;stroke-opacity:1" id="path2427"/><path d="M63.423 66.17c-.237 1.115-.064 2.064.424 2.978.488.915 4.297-.254 4.56-.717.261-.462-.039-3.145-.511-3.652-.472-.506-4.236.276-4.473 1.39z" style="display:inline;fill:#1b8bd2;fill-opacity:1;fill-rule:evenodd;stroke:none;stroke-width:1px;stroke-linecap:butt;stroke-linejoin:miter;stroke-opacity:1" id="path2429"/><path d="M68.598 64.645c-.277 1.286-.074 2.38.497 3.434.572 1.054 5.03-.292 5.336-.825.307-.534-.045-3.626-.598-4.21-.553-.584-4.957.316-5.235 1.601z" style="display:inline;fill:#4c5e7b;fill-opacity:1;fill-rule:evenodd;stroke:none;stroke-width:1px;stroke-linecap:butt;stroke-linejoin:miter;stroke-opacity:1" id="path2431"/><path d="M68.99 64.747c-.238 1.114-.065 2.064.424 2.978.488.915 4.297-.254 4.56-.717.261-.463-.039-3.145-.511-3.652-.472-.507-4.236.276-4.473 1.39z" style="display:inline;fill:#7a68ec;fill-opacity:1;fill-rule:evenodd;stroke:none;stroke-width:1px;stroke-linecap:butt;stroke-linejoin:miter;stroke-opacity:1" id="path2433"/><path d="M74.097 63.244c-.277 1.285-.074 2.38.497 3.434.572 1.054 5.03-.292 5.336-.825.307-.534-.045-3.626-.598-4.21-.553-.585-4.957.316-5.235 1.601z" style="display:inline;fill:#4c5e7b;fill-opacity:1;fill-rule:evenodd;stroke:none;stroke-width:1px;stroke-linecap:butt;stroke-linejoin:miter;stroke-opacity:1" id="path2435"/><path d="M74.489 63.345c-.238 1.115-.065 2.064.424 2.979.488.914 4.297-.254 4.56-.717.261-.463-.039-3.146-.511-3.652-.472-.507-4.236.275-4.473 1.39z" style="display:inline;fill:#cc77d6;fill-opacity:1;fill-rule:evenodd;stroke:none;stroke-width:1px;stroke-linecap:butt;stroke-linejoin:miter;stroke-opacity:1" id="path2437"/><path d="M79.665 61.756c-.277 1.285-.075 2.38.497 3.434.572 1.054 5.03-.292 5.336-.825.307-.534-.045-3.626-.598-4.21-.553-.584-4.957.316-5.235 1.601z" style="display:inline;fill:#4c5e7b;fill-opacity:1;fill-rule:evenodd;stroke:none;stroke-width:1px;stroke-linecap:butt;stroke-linejoin:miter;stroke-opacity:1" id="path2439"/><path d="M80.056 61.857c-.237 1.115-.064 2.064.425 2.979.488.914 4.297-.254 4.559-.717.262-.463-.038-3.145-.51-3.652-.473-.507-4.236.276-4.474 1.39z" style="display:inline;fill:#d677aa;fill-opacity:1;fill-rule:evenodd;stroke:none;stroke-width:1px;stroke-linecap:butt;stroke-linejoin:miter;stroke-opacity:1" id="path2441"/><path d="M85.232 60.333c-.277 1.285-.075 2.38.497 3.433.572 1.055 5.03-.291 5.336-.825.306-.533-.045-3.626-.598-4.21-.553-.584-4.958.317-5.235 1.602z" style="display:inline;fill:#4c5e7b;fill-opacity:1;fill-rule:evenodd;stroke:none;stroke-width:1px;stroke-linecap:butt;stroke-linejoin:miter;stroke-opacity:1" id="path2443"/><path d="M85.623 60.434c-.237 1.115-.064 2.064.424 2.979.489.914 4.298-.254 4.56-.717.262-.463-.038-3.146-.51-3.652-.473-.507-4.236.275-4.474 1.39z" style="display:inline;fill:#e16f6f;fill-opacity:1;fill-rule:evenodd;stroke:none;stroke-width:1px;stroke-linecap:butt;stroke-linejoin:miter;stroke-opacity:1" id="path2445"/><path d="M16.981 83.466c-.277 1.285-.074 2.379.498 3.433.571 1.055 5.029-.291 5.335-.825.307-.533-.045-3.626-.598-4.21-.553-.584-4.957.317-5.235 1.602z" style="display:inline;fill:#4c5e7b;fill-opacity:1;fill-rule:evenodd;stroke:none;stroke-width:1px;stroke-linecap:butt;stroke-linejoin:miter;stroke-opacity:1" id="path2447"/><path d="M17.373 83.567c-.238 1.115-.065 2.064.424 2.978.488.915 4.297-.254 4.56-.716.261-.463-.039-3.146-.511-3.653-.472-.506-4.236.276-4.473 1.39z" style="display:inline;fill:#e77936;fill-opacity:1;fill-rule:evenodd;stroke:none;stroke-width:1px;stroke-linecap:butt;stroke-linejoin:miter;stroke-opacity:1" id="path2449"/><path d="M22.548 82.043c-.277 1.285-.074 2.379.497 3.433.572 1.054 5.03-.292 5.336-.825.307-.534-.045-3.626-.598-4.21-.553-.584-4.957.316-5.235 1.602z" style="display:inline;fill:#4c5e7b;fill-opacity:1;fill-rule:evenodd;stroke:none;stroke-width:1px;stroke-linecap:butt;stroke-linejoin:miter;stroke-opacity:1" id="path2451"/><path d="M22.94 82.144c-.238 1.114-.065 2.064.424 2.978.488.915 4.297-.254 4.56-.717.261-.463-.039-3.145-.511-3.652-.473-.507-4.236.276-4.473 1.39z" style="display:inline;fill:#e79b36;fill-opacity:1;fill-rule:evenodd;stroke:none;stroke-width:1px;stroke-linecap:butt;stroke-linejoin:miter;stroke-opacity:1" id="path2453"/><path d="M28.116 80.555c-.277 1.285-.075 2.379.497 3.433.572 1.054 5.03-.291 5.336-.825.307-.534-.045-3.626-.598-4.21-.553-.584-4.958.317-5.235 1.602z" style="display:inline;fill:#4c5e7b;fill-opacity:1;fill-rule:evenodd;stroke:none;stroke-width:1px;stroke-linecap:butt;stroke-linejoin:miter;stroke-opacity:1" id="path2455"/><path d="M28.507 80.656c-.237 1.115-.064 2.064.425 2.978.488.915 4.297-.254 4.559-.717.262-.463-.038-3.145-.51-3.652-.473-.506-4.236.276-4.474 1.39z" style="display:inline;fill:#e7bb36;fill-opacity:1;fill-rule:evenodd;stroke:none;stroke-width:1px;stroke-linecap:butt;stroke-linejoin:miter;stroke-opacity:1" id="path2457"/><path d="M33.683 79.131c-.278 1.285-.075 2.38.497 3.434.572 1.054 5.03-.292 5.336-.825.306-.534-.046-3.626-.598-4.21-.553-.584-4.958.316-5.235 1.601z" style="display:inline;fill:#4c5e7b;fill-opacity:1;fill-rule:evenodd;stroke:none;stroke-width:1px;stroke-linecap:butt;stroke-linejoin:miter;stroke-opacity:1" id="path2459"/><path d="M34.074 79.232c-.237 1.115-.064 2.064.424 2.979.489.914 4.298-.254 4.56-.717.262-.463-.038-3.146-.51-3.652-.473-.507-4.236.275-4.474 1.39z" style="display:inline;fill:#d1e736;fill-opacity:1;fill-rule:evenodd;stroke:none;stroke-width:1px;stroke-linecap:butt;stroke-linejoin:miter;stroke-opacity:1" id="path2461"/><path d="M39.25 77.643c-.277 1.285-.074 2.38.498 3.434.572 1.054 5.029-.292 5.336-.825.306-.534-.046-3.626-.599-4.21-.553-.584-4.957.316-5.234 1.601z" style="display:inline;fill:#4c5e7b;fill-opacity:1;fill-rule:evenodd;stroke:none;stroke-width:1px;stroke-linecap:butt;stroke-linejoin:miter;stroke-opacity:1" id="path2463"/><path d="M39.642 77.744c-.237 1.115-.064 2.064.424 2.979.489.914 4.297-.254 4.56-.717.262-.463-.038-3.145-.51-3.652-.473-.507-4.237.276-4.474 1.39z" style="display:inline;fill:#75d21b;fill-opacity:1;fill-rule:evenodd;stroke:none;stroke-width:1px;stroke-linecap:butt;stroke-linejoin:miter;stroke-opacity:1" id="path2465"/><path d="M44.818 76.22c-.278 1.285-.075 2.38.497 3.434.572 1.054 5.029-.292 5.335-.826.307-.533-.045-3.625-.598-4.21-.553-.584-4.957.317-5.234 1.602z" style="display:inline;fill:#4c5e7b;fill-opacity:1;fill-rule:evenodd;stroke:none;stroke-width:1px;stroke-linecap:butt;stroke-linejoin:miter;stroke-opacity:1" id="path2467"/><path d="M45.209 76.321c-.237 1.115-.064 2.064.424 2.979.489.914 4.297-.254 4.56-.717.262-.463-.038-3.146-.51-3.652-.473-.507-4.237.275-4.474 1.39z" style="display:inline;fill:#1bd280;fill-opacity:1;fill-rule:evenodd;stroke:none;stroke-width:1px;stroke-linecap:butt;stroke-linejoin:miter;stroke-opacity:1" id="path2469"/><path d="M50.385 74.732c-.277 1.285-.074 2.38.498 3.434.571 1.054 5.029-.292 5.335-.825.307-.534-.045-3.626-.598-4.21-.553-.585-4.957.316-5.235 1.601z" style="display:inline;fill:#4c5e7b;fill-opacity:1;fill-rule:evenodd;stroke:none;stroke-width:1px;stroke-linecap:butt;stroke-linejoin:miter;stroke-opacity:1" id="path2471"/><path d="M50.777 74.833c-.238 1.115-.064 2.064.424 2.979.488.914 4.297-.254 4.56-.717.261-.463-.039-3.146-.511-3.652-.472-.507-4.236.275-4.473 1.39z" style="display:inline;fill:#1bd0d2;fill-opacity:1;fill-rule:evenodd;stroke:none;stroke-width:1px;stroke-linecap:butt;stroke-linejoin:miter;stroke-opacity:1" id="path2473"/><path d="M55.952 73.309c-.277 1.285-.074 2.379.497 3.433.572 1.055 5.03-.291 5.336-.825.307-.533-.045-3.626-.598-4.21-.553-.584-4.957.317-5.235 1.602z" style="display:inline;fill:#4c5e7b;fill-opacity:1;fill-rule:evenodd;stroke:none;stroke-width:1px;stroke-linecap:butt;stroke-linejoin:miter;stroke-opacity:1" id="path2475"/><path d="M56.344 73.41c-.238 1.115-.065 2.064.424 2.978.488.915 4.297-.253 4.56-.716.261-.463-.039-3.146-.511-3.653-.472-.506-4.236.276-4.473 1.391z" style="display:inline;fill:#1bbbd2;fill-opacity:1;fill-rule:evenodd;stroke:none;stroke-width:1px;stroke-linecap:butt;stroke-linejoin:miter;stroke-opacity:1" id="path2477"/><path d="M61.52 71.821c-.277 1.285-.075 2.38.497 3.433.572 1.055 5.03-.291 5.336-.825.307-.533-.045-3.626-.598-4.21-.553-.584-4.957.317-5.235 1.602z" style="display:inline;fill:#4c5e7b;fill-opacity:1;fill-rule:evenodd;stroke:none;stroke-width:1px;stroke-linecap:butt;stroke-linejoin:miter;stroke-opacity:1" id="path2479"/><path d="M61.911 71.922c-.237 1.115-.064 2.064.425 2.979.488.914 4.297-.254 4.559-.717.262-.463-.038-3.146-.51-3.652-.473-.507-4.236.275-4.474 1.39z" style="display:inline;fill:#1b8bd2;fill-opacity:1;fill-rule:evenodd;stroke:none;stroke-width:1px;stroke-linecap:butt;stroke-linejoin:miter;stroke-opacity:1" id="path2481"/><path d="M67.087 70.398c-.277 1.285-.075 2.379.497 3.433.572 1.054 5.03-.291 5.336-.825.306-.534-.045-3.626-.598-4.21-.553-.584-4.958.317-5.235 1.602z" style="display:inline;fill:#4c5e7b;fill-opacity:1;fill-rule:evenodd;stroke:none;stroke-width:1px;stroke-linecap:butt;stroke-linejoin:miter;stroke-opacity:1" id="path2483"/><path d="M67.478 70.499c-.237 1.115-.064 2.064.424 2.978.489.915 4.298-.254 4.56-.717.262-.463-.038-3.145-.51-3.652-.473-.506-4.236.276-4.474 1.39z" style="display:inline;fill:#7a68ec;fill-opacity:1;fill-rule:evenodd;stroke:none;stroke-width:1px;stroke-linecap:butt;stroke-linejoin:miter;stroke-opacity:1" id="path2485"/><path d="M72.586 68.996c-.277 1.286-.075 2.38.497 3.434.572 1.054 5.03-.292 5.336-.825.306-.534-.045-3.626-.598-4.21-.553-.584-4.958.316-5.235 1.601z" style="display:inline;fill:#4c5e7b;fill-opacity:1;fill-rule:evenodd;stroke:none;stroke-width:1px;stroke-linecap:butt;stroke-linejoin:miter;stroke-opacity:1" id="path2487"/><path d="M72.977 69.098c-.237 1.114-.064 2.064.424 2.978.489.915 4.298-.254 4.56-.717.262-.463-.038-3.145-.51-3.652-.473-.507-4.236.276-4.474 1.39z" style="display:inline;fill:#cc77d6;fill-opacity:1;fill-rule:evenodd;stroke:none;stroke-width:1px;stroke-linecap:butt;stroke-linejoin:miter;stroke-opacity:1" id="path2489"/><path d="M78.154 67.509c-.278 1.285-.075 2.379.497 3.433.572 1.054 5.029-.292 5.336-.825.306-.534-.046-3.626-.599-4.21-.552-.584-4.957.316-5.234 1.602z" style="display:inline;fill:#4c5e7b;fill-opacity:1;fill-rule:evenodd;stroke:none;stroke-width:1px;stroke-linecap:butt;stroke-linejoin:miter;stroke-opacity:1" id="path2491"/><path d="M78.545 67.61c-.237 1.115-.064 2.064.424 2.978.489.915 4.298-.254 4.56-.717.262-.463-.038-3.145-.51-3.652-.473-.507-4.237.276-4.474 1.39z" style="display:inline;fill:#d677aa;fill-opacity:1;fill-rule:evenodd;stroke:none;stroke-width:1px;stroke-linecap:butt;stroke-linejoin:miter;stroke-opacity:1" id="path2493"/><path d="M83.72 66.085c-.277 1.285-.074 2.38.498 3.434.572 1.054 5.029-.292 5.335-.825.307-.534-.045-3.626-.598-4.21-.553-.585-4.957.316-5.234 1.601z" style="display:inline;fill:#4c5e7b;fill-opacity:1;fill-rule:evenodd;stroke:none;stroke-width:1px;stroke-linecap:butt;stroke-linejoin:miter;stroke-opacity:1" id="path2495"/><path d="M84.112 66.186c-.237 1.115-.064 2.064.424 2.979.489.914 4.297-.254 4.56-.717.262-.463-.038-3.146-.51-3.652-.473-.507-4.237.275-4.474 1.39z" style="display:inline;fill:#e16f6f;fill-opacity:1;fill-rule:evenodd;stroke:none;stroke-width:1px;stroke-linecap:butt;stroke-linejoin:miter;stroke-opacity:1" id="path2497"/><path d="M40.802 82.758c-.278 1.285-.075 1.967.497 3.021.572 1.055 26.591-5.972 26.898-6.505.306-.534-.046-3.01-.598-3.594-.553-.584-26.52 5.793-26.797 7.078z" style="display:inline;fill:#4c5e7b;fill-opacity:1;fill-rule:evenodd;stroke:none;stroke-width:1px;stroke-linecap:butt;stroke-linejoin:miter;stroke-opacity:1" id="path2499"/><path d="M41.193 82.859c-.237 1.115-.064 1.652.424 2.567.489.914 25.86-5.935 26.122-6.398.262-.463-.038-2.53-.51-3.036-.473-.507-25.799 5.752-26.036 6.867z" style="display:inline;fill:#1bd0d2;fill-opacity:1;fill-rule:evenodd;stroke:none;stroke-width:1px;stroke-linecap:butt;stroke-linejoin:miter;stroke-opacity:1" id="path2501"/><g id="g3349" transform="matrix(3.77953 0 0 3.77953 -22.285 -1063.186)"><g id="g5993" transform="translate(-.891 .34)"><path style="fill:#f49b32;fill-opacity:1;fill-rule:evenodd;stroke:none;stroke-width:.21047px;stroke-linecap:butt;stroke-linejoin:miter;stroke-opacity:1" d="m26.402 289.712 1.785-1.13 1.947.21.852 1.213-.325 1.8-1.257.878-.325.796.284.795-.852.878-1.298-.209v-.879l.162-.334-.202-.712.365-1.925-.811.377z" id="path3149"/><path style="font-style:normal;font-variant:normal;font-weight:400;font-stretch:normal;font-size:medium;line-height:100%;font-family:'Indigo Joker';text-align:start;writing-mode:lr-tb;text-anchor:start;fill:#a76211;fill-opacity:1;stroke:none;stroke-width:.221714px;stroke-linecap:butt;stroke-linejoin:miter;stroke-opacity:1" d="M31.301 290.088c-.119 1.87-.867 1.832-1.783 2.682.005.175-.043.345-.086.495 0 .01.031.061.094.155.376.586-.201 1.427-.752 1.64-.683.263-1.805.187-1.82-.658.013-.255.12-.468.209-.686a.888.888 0 0 1-.158-.119c-.033-.044-.05-.18-.05-.406-.077-.676.267-1.685.308-1.897-.207.117-.427.245-.659.375-.24-.741-.326-1.38-.53-1.972a1.008 1.008 0 0 1-.064-.177c2.152-1.677 5.31-1.592 5.291.569zm-.658-.051c-.187-.818-.838-1.226-1.955-1.226-.658.07-1.372.235-1.812.768-.062.074-.093.143-.093.207 0 .133.045.448.136.945.005.035.034.074.086.118.56-.413 1.87-.834 1.883.17-.162.483-.692.35-1.117.325-.237.477-.25 1.035-.25 1.633 0 .034.01.074.028.118.029.064.062.096.1.096.453-.136.834-.093 1.29-.273.019-.143.045-.35.078-.62 1.201-.201 1.66-1.15 1.626-2.261zm-1.662 3.509c-.492-.306-1.489.173-1.503.694.216.549 1.24.311 1.482-.052.182-.254.174-.432.021-.643z" id="path3151"/></g></g></svg>